Coordinates
version=1
nRows=13
nColumns=40
inDegrees=yes

Units are S.I. units (second, meters, Newtons, ...)
Angles are in degrees.

endheader
time	pelvis_tilt	pelvis_list	pelvis_rotation	pelvis_tx	pelvis_ty	pelvis_tz	hip_flexion_r	hip_adduction_r	hip_rotation_r	knee_angle_r	knee_angle_r_beta	ankle_angle_r	subtalar_angle_r	mtp_angle_r	hip_flexion_l	hip_adduction_l	hip_rotation_l	knee_angle_l	knee_angle_l_beta	ankle_angle_l	subtalar_angle_l	mtp_angle_l	lumbar_extension	lumbar_bending	lumbar_rotation	arm_flex_r	arm_add_r	arm_rot_r	elbow_flex_r	pro_sup_r	wrist_flex_r	wrist_dev_r	arm_flex_l	arm_add_l	arm_rot_l	elbow_flex_l	pro_sup_l	wrist_flex_l	wrist_dev_l
     56.15000000	     -3.39716978	     -3.60994033	    -11.45621018	      0.91052725	      0.92729469	      0.41307920	     25.44696001	     -1.92046975	     -6.52414094	     21.33198261	     21.33198261	      4.60554421	      0.93929838	      1.73701255	      3.10953415	     -1.30807907	    -11.41000795	     17.40672386	     17.40672386	     19.09064500	    -14.14760516	      2.90559785	    -11.05700512	      7.66485465	      0.94216684	    -18.68808617	    -12.38040526	    -16.29909059	     25.14567170	     47.12272854	      0.00000000	      0.00000000	     29.48224345	    -21.59618244	     -6.68033756	     67.43397868	     47.36180677	      0.00000000	      0.00000000
     56.17000000	     -3.37360378	     -3.34234138	    -11.83843425	      0.91005575	      0.92606649	      0.41655966	     25.08558355	     -2.06468867	     -7.17681797	     19.96938712	     19.96938712	      4.54976270	      3.17196022	      2.04288105	      2.25170348	     -1.11546415	    -12.07210199	     16.65149218	     16.65149218	     19.21025872	    -13.49972394	      2.16805158	    -11.06676462	      7.49941106	      1.19182282	    -19.30126963	    -12.29420921	    -16.59360894	     25.42121675	     47.12063223	      0.00000000	      0.00000000	     30.30701025	    -21.71411108	     -7.66517937	     69.08415936	     47.46959891	      0.00000000	      0.00000000
     56.19000000	     -3.46715297	     -3.04146925	    -12.17285969	      0.90979335	      0.92444819	      0.42022176	     25.01812185	     -2.22362332	     -7.67309586	     19.38314515	     19.38314515	      4.52004258	      4.55673957	      1.85381114	      1.65342156	     -0.95419196	    -12.72146225	     16.11902755	     16.11902755	     18.93083915	    -13.12690831	      0.29097577	    -10.94638707	      7.33979519	      0.78236768	    -19.46688464	    -12.25584456	    -17.53182178	     26.82044411	     47.09991041	      0.00000000	      0.00000000	     30.10139483	    -21.88159252	    -10.24715033	     71.86324956	     47.70748172	      0.00000000	      0.00000000
     56.21000000	     -3.50683091	     -2.81693389	    -12.48452297	      0.90990031	      0.92309192	      0.42413795	     24.81080582	     -2.24982108	     -7.87184097	     19.06380580	     19.06380580	      4.20882343	      5.07336476	      0.71592841	      0.96033987	     -0.83508670	    -13.15119354	     15.60924873	     15.60924873	     18.97846097	    -12.83573325	     -0.47981308	    -10.84731266	      7.25864679	      0.73314573	    -19.22686872	    -12.25366843	    -17.97020945	     27.23271643	     47.07506061	      0.00000000	      0.00000000	     30.30667472	    -21.98193101	    -11.61907646	     73.58423174	     47.84283809	      0.00000000	      0.00000000
     56.23000000	     -3.56001997	     -2.61678089	    -12.77839476	      0.91026577	      0.92185522	      0.42832144	     24.73196962	     -2.25339467	     -7.98136821	     19.31743949	     19.31743949	      4.23140142	      5.22208888	      0.05194353	      0.32658616	     -0.76857866	    -13.55953396	     15.24471508	     15.24471508	     19.24193546	    -12.48779285	     -0.62033821	    -10.71289344	      7.22261320	      1.02130072	    -18.92547843	    -12.27033397	    -18.06623549	     27.53451330	     47.06018245	      0.00000000	      0.00000000	     30.75483964	    -21.92872040	    -12.20302450	     74.63895709	     47.90558848	      0.00000000	      0.00000000
     56.25000000	     -3.64357564	     -2.53539330	    -12.98484960	      0.91084516	      0.92077838	      0.43283861	     24.56629206	     -2.07913674	     -7.89961457	     19.61684965	     19.61684965	      3.87651792	      4.74556351	     -1.85527170	     -0.16330689	     -0.91883684	    -13.98336291	     15.18391834	     15.18391834	     19.59818409	    -12.05677845	     -0.69435475	    -10.61395982	      7.30199490	      0.74249619	    -18.26650423	    -12.38805396	    -18.38858813	     28.52648545	     47.01456335	      0.00000000	      0.00000000	     30.42062240	    -22.00086046	    -13.92258972	     76.62642211	     48.05605310	      0.00000000	      0.00000000
     56.27000000	     -3.76755608	     -2.42285700	    -13.16856276	      0.91154846	      0.91990276	      0.43759327	     24.59388372	     -1.92319774	     -7.68435736	     20.36259590	     20.36259590	      4.01848373	      4.09535766	     -2.67035992	     -0.63239484	     -1.02547464	    -14.20541954	     15.05669536	     15.05669536	     19.83983276	    -11.87892444	     -0.54098160	    -10.42602304	      7.32925315	      0.86808305	    -17.51996603	    -12.50212973	    -18.41244508	     28.96805948	     46.98977638	      0.00000000	      0.00000000	     30.57837758	    -21.99190473	    -14.42696555	     77.41344113	     48.10493836	      0.00000000	      0.00000000
     56.29000000	     -3.83293925	     -2.47066527	    -13.26483829	      0.91235580	      0.91943627	      0.44260172	     24.44075566	     -1.63214346	     -7.62337799	     21.07693605	     21.07693605	      4.34557150	      3.64381702	     -3.08025629	     -1.09886012	     -1.33390799	    -14.30301582	     15.12092180	     15.12092180	     19.97541083	    -11.89355653	     -0.45001705	    -10.36451321	      7.51112227	      1.04547103	    -16.66362094	    -12.65177726	    -18.42516536	     29.40254400	     46.97581173	      0.00000000	      0.00000000	     30.82858828	    -21.96090923	    -14.63067306	     77.82001570	     48.12732371	      0.00000000	      0.00000000
     56.31000000	     -3.98075893	     -2.50323604	    -13.32274024	      0.91318818	      0.91910798	      0.44797794	     24.35307072	     -1.17445111	     -6.97690083	     21.72513080	     21.72513080	      4.39967438	      2.16083002	     -4.01203111	     -1.33737953	     -1.76615631	    -14.65177969	     15.50185318	     15.50185318	     20.44100865	    -11.40482342	      0.22090808	    -10.25424614	      7.62226606	      0.64876925	    -15.69255640	    -12.81464025	    -18.57403086	     30.75182959	     46.90840271	      0.00000000	      0.00000000	     30.06686989	    -22.04569339	    -16.19283581	     79.73553700	     48.25950104	      0.00000000	      0.00000000
     56.33000000	     -4.07876771	     -2.58622960	    -13.29708676	      0.91411938	      0.91920361	      0.45339342	     24.11349015	     -0.82979371	     -6.98141547	     22.27775332	     22.27775332	      4.79576782	      1.90773878	     -4.26459998	     -1.69578915	     -2.18926151	    -14.66242220	     15.69595157	     15.69595157	     20.39038449	    -11.48130230	      0.34121571	    -10.15114239	      7.75957764	      0.83187354	    -14.71526684	    -12.97789453	    -18.54967753	     31.18670579	     46.89431250	      0.00000000	      0.00000000	     30.20616762	    -21.86863230	    -16.18291135	     79.89589861	     48.26232568	      0.00000000	      0.00000000
     56.35000000	     -4.20022147	     -2.70540956	    -13.20291571	      0.91494090	      0.91942613	      0.45908219	     23.88136952	     -0.29683523	     -6.51556348	     22.77461120	     22.77461120	      5.23548456	      0.71728572	     -4.24630866	     -1.74706769	     -2.82197096	    -14.84016147	     16.49240102	     16.49240102	     20.71981118	    -11.12701728	      0.98145471	    -10.09353639	      7.87831896	      0.48555004	    -13.84871660	    -13.18300915	    -18.43821661	     32.66997303	     46.80526727	      0.00000000	      0.00000000	     29.62576607	    -21.98094376	    -17.12050973	     81.07405932	     48.34123992	      0.00000000	      0.00000000
     56.37000000	     -4.26334545	     -2.77456171	    -13.05661178	      0.91579787	      0.92003673	      0.46468442	     23.49323543	      0.03719409	     -6.57098398	     23.06695283	     23.06695283	      5.65758310	      0.51743841	     -4.36391957	     -1.91554409	     -3.32512413	    -14.77198580	     17.06152378	     17.06152378	     20.51438587	    -11.26281958	      1.08635265	    -10.04665408	      7.91063945	      0.60141216	    -12.86107690	    -13.36872865	    -18.38492305	     33.21860708	     46.78369825	      0.00000000	      0.00000000	     29.64883582	    -21.71590404	    -17.06104506	     81.17343982	     48.33892390	      0.00000000	      0.00000000
     56.39000000	     -4.42401385	     -2.96889247	    -12.80839863	      0.91649850	      0.92069953	      0.47046095	     23.04354746	      0.56917846	     -6.60958784	     23.06837967	     23.06837967	      6.06859304	      0.12834899	     -4.22026150	     -1.66262323	     -4.13578387	    -14.66433093	     18.27012488	     18.27012488	     20.36591791	    -11.43097086	      1.10668576	     -9.91871345	      8.04864485	      0.50605275	    -12.03459168	    -13.58111158	    -18.27735279	     34.23668020	     46.73355530	      0.00000000	      0.00000000	     29.44957015	    -21.59714070	    -17.18516919	     81.38157580	     48.34962988	      0.00000000	      0.00000000
